<svg width="147.35205078125px" height="83.6px" xmlns="http://www.w3.org/2000/svg" viewBox="176.323974609375 33.2 147.35205078125 83.6" style="background:#051103" preserveAspectRatio="xMidYMid"><defs><linearGradient id="editing-glowing-gradient" x1="0" x2="1" y1="0.5" y2="0.5"><stop offset="0" stop-color="#67ff43"></stop><stop offset="1" stop-color="#90ffff"></stop></linearGradient><filter id="editing-glowing" x="-100%" y="-100%" width="300%" height="300%"><feGaussianBlur in="SourceGraphic" result="blur" stdDeviation="1.5"></feGaussianBlur><feMerge><feMergeNode in="blur"></feMergeNode><feMergeNode in="SourceGraphic"></feMergeNode></feMerge></filter></defs><g filter="url(#editing-glowing)"><g transform="translate(176.34883880615234, 96.67499923706055)"><path d="M14.20 0L5.60 0L5.60-34.70L0.50-34.70L0.50-42.95L19.30-42.95L19.30-34.70L14.20-34.70L14.20 0ZM31.80 0.40L31.80 0.40Q26.15 0.40 23.70-2.70L23.70-2.70L23.70-2.70Q21.25-5.80 21.25-11.95L21.25-11.95L21.25-26.65L21.25-26.65Q21.25-31.70 24.15-34.35L24.15-34.35L24.15-34.35Q27.05-37 32.25-37L32.25-37L32.25-37Q42.80-37 42.80-26.65L42.80-26.65L42.80-24L42.80-24Q42.80-20 42.70-17.50L42.70-17.50L30-17.50L30-10.40L30-10.40Q30-8.50 30.40-7.43L30.40-7.43L30.40-7.43Q30.80-6.35 32.10-6.35L32.10-6.35L32.10-6.35Q33.10-6.35 33.53-6.95L33.53-6.95L33.53-6.95Q33.95-7.55 34.03-8.33L34.03-8.33L34.03-8.33Q34.10-9.10 34.10-10.60L34.10-10.60L34.10-14.15L42.80-14.15L42.80-12.05L42.80-12.05Q42.80-5.65 40.33-2.63L40.33-2.63L40.33-2.63Q37.85 0.40 31.80 0.40L31.80 0.40ZM29.95-21.85L34.10-21.85L34.10-26.55L34.10-26.55Q34.10-30.50 32.15-30.50L32.15-30.50L32.15-30.50Q29.95-30.50 29.95-26.55L29.95-26.55L29.95-21.85ZM45.95 0L45.95-36.60L54.70-36.60L54.70-32.55L54.70-32.55Q55.35-34.70 56.98-35.88L56.98-35.88L56.98-35.88Q58.60-37.05 61-37.05L61-37.05L61-29.75L61-29.75Q59.15-29.75 56.93-29.23L56.93-29.23L56.93-29.23Q54.70-28.70 54.70-28L54.70-28L54.70 0L45.95 0ZM63.15 0L63.15-36.60L71.70-36.60L71.70-32.35L71.70-32.35Q72.30-34.70 73.75-35.85L73.75-35.85L73.75-35.85Q75.20-37 77.85-37L77.85-37L77.85-37Q80-37 81.58-36.02L81.58-36.02L81.58-36.02Q83.15-35.05 83.80-33.35L83.80-33.35L83.80-33.35Q84.90-35.25 86.25-36.13L86.25-36.13L86.25-36.13Q87.60-37 90-37L90-37L90-37Q94.30-37 95.98-34.38L95.98-34.38L95.98-34.38Q97.65-31.75 97.65-26.75L97.65-26.75L97.55 0L88.75 0L88.75-26.90L88.75-26.90Q88.75-30.45 86.95-30.45L86.95-30.45L86.95-30.45Q85.70-30.45 85.15-29.23L85.15-29.23L85.15-29.23Q84.60-28 84.60-26.30L84.60-26.30L84.60 0L75.85 0L75.85-26.90L75.85-26.90Q75.85-28.45 75.53-29.40L75.53-29.40L75.53-29.40Q75.20-30.35 74.15-30.35L74.15-30.35L74.15-30.35Q72.80-30.35 72.25-29.03L72.25-29.03L72.25-29.03Q71.70-27.70 71.70-25.85L71.70-25.85L71.70 0L63.15 0ZM108.10 0.40L108.10 0.40Q104.00 0.40 102.48-2.05L102.48-2.05L102.48-2.05Q100.95-4.50 100.95-9.35L100.95-9.35L100.95-36.60L109.75-36.60L109.75-11.10L109.75-11.10Q109.75-10.75 109.75-9.22L109.75-9.22L109.75-9.22Q109.75-7.70 110.23-7.08L110.23-7.08L110.23-7.08Q110.70-6.45 111.70-6.45L111.70-6.45L111.70-6.45Q113.05-6.45 113.40-7.58L113.40-7.58L113.40-7.58Q113.75-8.70 113.75-10.80L113.75-10.80L113.75-11.10L113.80-36.60L122.50-36.60L122.50 0L113.75 0L113.75-3.90L113.75-3.90Q112.85-1.60 111.65-0.60L111.65-0.60L111.65-0.60Q110.45 0.40 108.10 0.40L108.10 0.40ZM140.40-18.55L147 0L138.25 0L134.55-10.30L131.05 0L124.45 0L131.15-19.65L125.05-36.65L133.95-36.65L137.10-27.75L140.20-36.65L146.70-36.65L140.40-18.55Z" fill="url(#editing-glowing-gradient)"></path></g></g><style>text {
  font-size: 64px;
  font-family: Arial Black;
  dominant-baseline: central;
  text-anchor: middle;
}</style></svg>