<svg width="83.6759063720703px" height="51.60000076293945px" xmlns="http://www.w3.org/2000/svg" viewBox="208.16204681396485 49.19999961853027 83.6759063720703 51.60000076293945" style="background:#051103" preserveAspectRatio="xMidYMid"><defs><linearGradient id="editing-glowing-gradient" x1="0.30463443575536325" x2="0.6953655642446368" y1="0.9602524267262202" y2="0.03974757327377976"><stop offset="0" stop-color="#67ff43"></stop><stop offset="1" stop-color="#90ffff"></stop></linearGradient><filter id="editing-glowing" x="-100%" y="-100%" width="300%" height="300%"><feGaussianBlur in="SourceGraphic" result="blur" stdDeviation="10"></feGaussianBlur><feMerge><feMergeNode in="blur"></feMergeNode><feMergeNode in="SourceGraphic"></feMergeNode></feMerge></filter></defs><g filter="url(#editing-glowing)"><g transform="translate(213.17253875732422, 85.8400011062622)"><path d="M7.10 0L2.80 0L2.80-17.35L0.25-17.35L0.25-21.48L9.65-21.48L9.65-17.35L7.10-17.35L7.10 0ZM15.90 0.20L15.90 0.20Q13.08 0.20 11.85-1.35L11.85-1.35L11.85-1.35Q10.63-2.90 10.63-5.98L10.63-5.98L10.63-13.33L10.63-13.33Q10.63-15.85 12.08-17.18L12.08-17.18L12.08-17.18Q13.53-18.50 16.13-18.50L16.13-18.50L16.13-18.50Q21.40-18.50 21.40-13.33L21.40-13.33L21.40-12L21.40-12Q21.40-10 21.35-8.75L21.35-8.75L15-8.75L15-5.20L15-5.20Q15-4.25 15.20-3.71L15.20-3.71L15.20-3.71Q15.40-3.18 16.05-3.18L16.05-3.18L16.05-3.18Q16.55-3.18 16.76-3.48L16.76-3.48L16.76-3.48Q16.98-3.78 17.01-4.16L17.01-4.16L17.01-4.16Q17.05-4.55 17.05-5.30L17.05-5.30L17.05-7.08L21.40-7.08L21.40-6.03L21.40-6.03Q21.40-2.83 20.16-1.31L20.16-1.31L20.16-1.31Q18.93 0.20 15.90 0.20L15.90 0.20ZM14.98-10.93L17.05-10.93L17.05-13.28L17.05-13.28Q17.05-15.25 16.08-15.25L16.08-15.25L16.08-15.25Q14.98-15.25 14.98-13.28L14.98-13.28L14.98-10.93ZM22.98 0L22.98-18.30L27.35-18.30L27.35-16.28L27.35-16.28Q27.68-17.35 28.49-17.94L28.49-17.94L28.49-17.94Q29.30-18.53 30.50-18.53L30.50-18.53L30.50-14.88L30.50-14.88Q29.58-14.88 28.46-14.61L28.46-14.61L28.46-14.61Q27.35-14.35 27.35-14L27.35-14L27.35 0L22.98 0ZM31.58 0L31.58-18.30L35.85-18.30L35.85-16.18L35.85-16.18Q36.15-17.35 36.88-17.93L36.88-17.93L36.88-17.93Q37.60-18.50 38.93-18.50L38.93-18.50L38.93-18.50Q40-18.50 40.79-18.01L40.79-18.01L40.79-18.01Q41.58-17.53 41.90-16.68L41.90-16.68L41.90-16.68Q42.45-17.63 43.13-18.06L43.13-18.06L43.13-18.06Q43.80-18.50 45-18.50L45-18.50L45-18.50Q47.15-18.50 47.99-17.19L47.99-17.19L47.99-17.19Q48.83-15.88 48.83-13.38L48.83-13.38L48.78 0L44.38 0L44.38-13.45L44.38-13.45Q44.38-15.23 43.48-15.23L43.48-15.23L43.48-15.23Q42.85-15.23 42.58-14.61L42.58-14.61L42.58-14.61Q42.30-14 42.30-13.15L42.30-13.15L42.30 0L37.93 0L37.93-13.45L37.93-13.45Q37.93-14.23 37.76-14.70L37.76-14.70L37.76-14.70Q37.60-15.18 37.08-15.18L37.08-15.18L37.08-15.18Q36.40-15.18 36.13-14.51L36.13-14.51L36.13-14.51Q35.85-13.85 35.85-12.93L35.85-12.93L35.85 0L31.58 0ZM54.05 0.20L54.05 0.20Q52.00 0.20 51.24-1.03L51.24-1.03L51.24-1.03Q50.48-2.25 50.48-4.67L50.48-4.67L50.48-18.30L54.88-18.30L54.88-5.55L54.88-5.55Q54.88-5.38 54.88-4.61L54.88-4.61L54.88-4.61Q54.88-3.85 55.11-3.54L55.11-3.54L55.11-3.54Q55.35-3.23 55.85-3.23L55.85-3.23L55.85-3.23Q56.53-3.23 56.70-3.79L56.70-3.79L56.70-3.79Q56.88-4.35 56.88-5.40L56.88-5.40L56.88-5.55L56.90-18.30L61.25-18.30L61.25 0L56.88 0L56.88-1.95L56.88-1.95Q56.43-0.80 55.83-0.30L55.83-0.30L55.83-0.30Q55.23 0.20 54.05 0.20L54.05 0.20ZM70.20-9.28L73.50 0L69.13 0L67.28-5.15L65.53 0L62.23 0L65.58-9.83L62.53-18.32L66.98-18.32L68.55-13.88L70.10-18.32L73.35-18.32L70.20-9.28Z" fill="url(#editing-glowing-gradient)"></path></g></g><style>text {
  font-size: 64px;
  font-family: Arial Black;
  dominant-baseline: central;
  text-anchor: middle;
}</style></svg>