<svg width="120.1834014892578px" height="58.00000152587891px" xmlns="http://www.w3.org/2000/svg" viewBox="189.9082992553711 45.99999923706055 120.1834014892578 58.00000152587891" style="background:#051103" preserveAspectRatio="xMidYMid"><defs><linearGradient id="editing-glowing-gradient" x1="0.8146601955249186" x2="0.18533980447508142" y1="0.8885729807284856" y2="0.11142701927151444"><stop offset="0" stop-color="#67ff43"></stop><stop offset="1" stop-color="#90ffff"></stop></linearGradient><filter id="editing-glowing" x="-100%" y="-100%" width="300%" height="300%"><feGaussianBlur in="SourceGraphic" result="blur" stdDeviation="10"></feGaussianBlur><feMerge><feMergeNode in="blur"></feMergeNode><feMergeNode in="SourceGraphic"></feMergeNode></feMerge></filter></defs><g filter="url(#editing-glowing)"><g transform="translate(191.81750810146332, 88.07999897003174)"><path d="M6.33 0L1.14 0L1.14-25.77L11.46-25.77L11.46-20.76L6.33-20.76L6.33-16.65L11.19-16.65L11.19-11.70L6.33-11.70L6.33 0ZM17.01 0.24L17.01 0.24Q14.46 0.24 13.51-1.45L13.51-1.45L13.51-1.45Q12.57-3.15 12.57-6.30L12.57-6.30L12.57-6.30Q12.57-8.88 13.24-10.26L13.24-10.26L13.24-10.26Q13.92-11.64 15.12-12.29L15.12-12.29L15.12-12.29Q16.32-12.93 18.78-13.71L18.78-13.71L20.22-14.19L20.22-14.25L20.22-16.44L20.22-16.44Q20.22-17.31 19.88-17.77L19.88-17.77L19.88-17.77Q19.53-18.24 19.05-18.24L19.05-18.24L19.05-18.24Q18.63-18.24 18.31-17.85L18.31-17.85L18.31-17.85Q18-17.46 18-16.80L18-16.80L18-15.48L12.90-15.48L12.90-16.20L12.90-16.20Q12.90-19.44 14.41-20.82L14.41-20.82L14.41-20.82Q15.93-22.20 19.35-22.20L19.35-22.20L19.35-22.20Q22.08-22.20 23.79-20.77L23.79-20.77L23.79-20.77Q25.50-19.35 25.50-16.74L25.50-16.74L25.50 0L20.28 0L20.28-2.61L20.28-2.61Q19.89-1.26 19.03-0.51L19.03-0.51L19.03-0.51Q18.18 0.24 17.01 0.24L17.01 0.24ZM19.08-3.84L19.08-3.84Q19.68-3.84 19.93-4.33L19.93-4.33L19.93-4.33Q20.19-4.83 20.19-5.55L20.19-5.55L20.19-11.67L20.19-11.67Q19.02-11.22 18.46-10.53L18.46-10.53L18.46-10.53Q17.91-9.84 17.91-8.61L17.91-8.61L17.91-5.79L17.91-5.79Q17.91-3.84 19.08-3.84L19.08-3.84ZM34.11 0.24L34.11 0.24Q30.51 0.24 28.92-1.59L28.92-1.59L28.92-1.59Q27.33-3.42 27.33-7.20L27.33-7.20L27.33-13.98L27.33-13.98Q27.33-16.83 27.95-18.61L27.95-18.61L27.95-18.61Q28.56-20.40 30.02-21.30L30.02-21.30L30.02-21.30Q31.47-22.20 34.05-22.20L34.05-22.20L34.05-22.20Q36.87-22.20 38.64-20.73L38.64-20.73L38.64-20.73Q40.41-19.26 40.41-16.62L40.41-16.62L40.41-13.26L35.07-13.26L35.07-16.35L35.07-16.35Q35.07-17.22 34.83-17.68L34.83-17.68L34.83-17.68Q34.59-18.15 33.90-18.15L33.90-18.15L33.90-18.15Q32.61-18.15 32.61-16.32L32.61-16.32L32.61-5.67L32.61-5.67Q32.61-4.92 32.92-4.39L32.92-4.39L32.92-4.39Q33.24-3.87 33.87-3.87L33.87-3.87L33.87-3.87Q34.50-3.87 34.81-4.38L34.81-4.38L34.81-4.38Q35.13-4.89 35.10-5.70L35.10-5.70L35.07-9.39L40.41-9.39L40.41-5.55L40.41-5.55Q40.41-2.85 38.66-1.30L38.66-1.30L38.66-1.30Q36.90 0.24 34.11 0.24L34.11 0.24ZM48.39 0.24L48.39 0.24Q45 0.24 43.53-1.62L43.53-1.62L43.53-1.62Q42.06-3.48 42.06-7.17L42.06-7.17L42.06-15.99L42.06-15.99Q42.06-19.02 43.80-20.61L43.80-20.61L43.80-20.61Q45.54-22.20 48.66-22.20L48.66-22.20L48.66-22.20Q54.99-22.20 54.99-15.99L54.99-15.99L54.99-14.40L54.99-14.40Q54.99-12 54.93-10.50L54.93-10.50L47.31-10.50L47.31-6.24L47.31-6.24Q47.31-5.10 47.55-4.46L47.55-4.46L47.55-4.46Q47.79-3.81 48.57-3.81L48.57-3.81L48.57-3.81Q49.17-3.81 49.42-4.17L49.42-4.17L49.42-4.17Q49.68-4.53 49.72-5.00L49.72-5.00L49.72-5.00Q49.77-5.46 49.77-6.36L49.77-6.36L49.77-8.49L54.99-8.49L54.99-7.23L54.99-7.23Q54.99-3.39 53.50-1.57L53.50-1.57L53.50-1.57Q52.02 0.24 48.39 0.24L48.39 0.24ZM47.28-13.11L49.77-13.11L49.77-15.93L49.77-15.93Q49.77-18.30 48.60-18.30L48.60-18.30L48.60-18.30Q47.28-18.30 47.28-15.93L47.28-15.93L47.28-13.11ZM65.37 0.24L65.37 0.24Q63.21 0.24 62.28-2.34L62.28-2.34L62.28 0L56.88 0L56.88-25.92L62.28-25.92L62.28-20.91L62.28-20.91Q63.54-22.20 65.22-22.20L65.22-22.20L65.22-22.20Q67.77-22.20 68.88-20.68L68.88-20.68L68.88-20.68Q69.99-19.17 69.99-16.32L69.99-16.32L69.99-5.73L69.99-5.73Q69.99-3.03 68.85-1.40L68.85-1.40L68.85-1.40Q67.71 0.24 65.37 0.24L65.37 0.24ZM63.60-3.84L63.60-3.84Q64.14-3.84 64.36-4.18L64.36-4.18L64.36-4.18Q64.59-4.53 64.63-5.05L64.63-5.05L64.63-5.05Q64.68-5.58 64.68-6.69L64.68-6.69L64.68-15.84L64.68-15.84Q64.68-17.01 64.47-17.58L64.47-17.58L64.47-17.58Q64.26-18.15 63.57-18.15L63.57-18.15L63.57-18.15Q62.82-18.15 62.55-17.58L62.55-17.58L62.55-17.58Q62.28-17.01 62.28-15.90L62.28-15.90L62.28-6.69L62.28-6.69Q62.28-5.25 62.52-4.54L62.52-4.54L62.52-4.54Q62.76-3.84 63.60-3.84L63.60-3.84ZM78.30 0.24L78.30 0.24Q71.73 0.24 71.73-6.57L71.73-6.57L71.73-15.39L71.73-15.39Q71.73-18.51 73.48-20.36L73.48-20.36L73.48-20.36Q75.24-22.20 78.30-22.20L78.30-22.20L78.30-22.20Q81.36-22.20 83.11-20.36L83.11-20.36L83.11-20.36Q84.87-18.51 84.87-15.39L84.87-15.39L84.87-6.57L84.87-6.57Q84.87 0.24 78.30 0.24L78.30 0.24ZM78.30-3.81L78.30-3.81Q78.93-3.81 79.23-4.26L79.23-4.26L79.23-4.26Q79.53-4.71 79.53-5.49L79.53-5.49L79.53-16.23L79.53-16.23Q79.53-18.15 78.30-18.15L78.30-18.15L78.30-18.15Q77.07-18.15 77.07-16.23L77.07-16.23L77.07-5.49L77.07-5.49Q77.07-4.71 77.37-4.26L77.37-4.26L77.37-4.26Q77.67-3.81 78.30-3.81L78.30-3.81ZM93.21 0.24L93.21 0.24Q86.64 0.24 86.64-6.57L86.64-6.57L86.64-15.39L86.64-15.39Q86.64-18.51 88.39-20.36L88.39-20.36L88.39-20.36Q90.15-22.20 93.21-22.20L93.21-22.20L93.21-22.20Q96.27-22.20 98.02-20.36L98.02-20.36L98.02-20.36Q99.78-18.51 99.78-15.39L99.78-15.39L99.78-6.57L99.78-6.57Q99.78 0.24 93.21 0.24L93.21 0.24ZM93.21-3.81L93.21-3.81Q93.84-3.81 94.14-4.26L94.14-4.26L94.14-4.26Q94.44-4.71 94.44-5.49L94.44-5.49L94.44-16.23L94.44-16.23Q94.44-18.15 93.21-18.15L93.21-18.15L93.21-18.15Q91.98-18.15 91.98-16.23L91.98-16.23L91.98-5.49L91.98-5.49Q91.98-4.71 92.28-4.26L92.28-4.26L92.28-4.26Q92.58-3.81 93.21-3.81L93.21-3.81ZM106.92 0L101.73 0L101.73-25.92L106.92-25.92L106.92-14.40L109.44-21.96L114.87-21.96L111.57-12.42L115.77 0L110.19 0L106.92-10.35L106.92 0Z" fill="url(#editing-glowing-gradient)"></path></g></g><style>text {
  font-size: 64px;
  font-family: Arial Black;
  dominant-baseline: central;
  text-anchor: middle;
}</style></svg>
