<svg width="106.20625610351563px" height="58.00000152587891px" xmlns="http://www.w3.org/2000/svg" viewBox="196.8968719482422 45.99999923706055 106.20625610351563 58.00000152587891" style="background:#051103" preserveAspectRatio="xMidYMid"><defs><linearGradient id="editing-glowing-gradient" x1="0.5174497483512508" x2="0.48255025164874915" y1="0.9996954135095478" y2="0.00030458649045217445"><stop offset="0" stop-color="#67ff43"></stop><stop offset="1" stop-color="#90ffff"></stop></linearGradient><filter id="editing-glowing" x="-100%" y="-100%" width="300%" height="300%"><feGaussianBlur in="SourceGraphic" result="blur" stdDeviation="23.5"></feGaussianBlur><feMerge><feMergeNode in="blur"></feMergeNode><feMergeNode in="SourceGraphic"></feMergeNode></feMerge></filter></defs><g filter="url(#editing-glowing)"><g transform="translate(200.4549957215786, 88.07999897003174)"><path d="M9.12 0L4.26 0L4.26-8.49L0.15-25.77L5.25-25.77L6.69-17.04L8.13-25.77L13.23-25.77L9.12-8.49L9.12 0ZM20.82 0.24L20.82 0.24Q14.25 0.24 14.25-6.57L14.25-6.57L14.25-15.39L14.25-15.39Q14.25-18.51 16.00-20.36L16.00-20.36L16.00-20.36Q17.76-22.20 20.82-22.20L20.82-22.20L20.82-22.20Q23.88-22.20 25.63-20.36L25.63-20.36L25.63-20.36Q27.39-18.51 27.39-15.39L27.39-15.39L27.39-6.57L27.39-6.57Q27.39 0.24 20.82 0.24L20.82 0.24ZM20.82-3.81L20.82-3.81Q21.45-3.81 21.75-4.26L21.75-4.26L21.75-4.26Q22.05-4.71 22.05-5.49L22.05-5.49L22.05-16.23L22.05-16.23Q22.05-18.15 20.82-18.15L20.82-18.15L20.82-18.15Q19.59-18.15 19.59-16.23L19.59-16.23L19.59-5.49L19.59-5.49Q19.59-4.71 19.89-4.26L19.89-4.26L19.89-4.26Q20.19-3.81 20.82-3.81L20.82-3.81ZM33.57 0.24L33.57 0.24Q31.11 0.24 30.20-1.23L30.20-1.23L30.20-1.23Q29.28-2.70 29.28-5.61L29.28-5.61L29.28-21.96L34.56-21.96L34.56-6.66L34.56-6.66Q34.56-6.45 34.56-5.54L34.56-5.54L34.56-5.54Q34.56-4.62 34.84-4.25L34.84-4.25L34.84-4.25Q35.13-3.87 35.73-3.87L35.73-3.87L35.73-3.87Q36.54-3.87 36.75-4.54L36.75-4.54L36.75-4.54Q36.96-5.22 36.96-6.48L36.96-6.48L36.96-6.66L36.99-21.96L42.21-21.96L42.21 0L36.96 0L36.96-2.34L36.96-2.34Q36.42-0.96 35.70-0.36L35.70-0.36L35.70-0.36Q34.98 0.24 33.57 0.24L33.57 0.24ZM51.78 0L46.62 0L46.62-20.82L43.56-20.82L43.56-25.77L54.84-25.77L54.84-20.82L51.78-20.82L51.78 0ZM60.42 0.24L60.42 0.24Q57.96 0.24 57.05-1.23L57.05-1.23L57.05-1.23Q56.13-2.70 56.13-5.61L56.13-5.61L56.13-21.96L61.41-21.96L61.41-6.66L61.41-6.66Q61.41-6.45 61.41-5.54L61.41-5.54L61.41-5.54Q61.41-4.62 61.70-4.25L61.70-4.25L61.70-4.25Q61.98-3.87 62.58-3.87L62.58-3.87L62.58-3.87Q63.39-3.87 63.60-4.54L63.60-4.54L63.60-4.54Q63.81-5.22 63.81-6.48L63.81-6.48L63.81-6.66L63.84-21.96L69.06-21.96L69.06 0L63.81 0L63.81-2.34L63.81-2.34Q63.27-0.96 62.55-0.36L62.55-0.36L62.55-0.36Q61.83 0.24 60.42 0.24L60.42 0.24ZM79.65 0.24L79.65 0.24Q77.49 0.24 76.56-2.34L76.56-2.34L76.56 0L71.16 0L71.16-25.92L76.56-25.92L76.56-20.91L76.56-20.91Q77.82-22.20 79.50-22.20L79.50-22.20L79.50-22.20Q82.05-22.20 83.16-20.68L83.16-20.68L83.16-20.68Q84.27-19.17 84.27-16.32L84.27-16.32L84.27-5.73L84.27-5.73Q84.27-3.03 83.13-1.40L83.13-1.40L83.13-1.40Q81.99 0.24 79.65 0.24L79.65 0.24ZM77.88-3.84L77.88-3.84Q78.42-3.84 78.64-4.18L78.64-4.18L78.64-4.18Q78.87-4.53 78.91-5.05L78.91-5.05L78.91-5.05Q78.96-5.58 78.96-6.69L78.96-6.69L78.96-15.84L78.96-15.84Q78.96-17.01 78.75-17.58L78.75-17.58L78.75-17.58Q78.54-18.15 77.85-18.15L77.85-18.15L77.85-18.15Q77.10-18.15 76.83-17.58L76.83-17.58L76.83-17.58Q76.56-17.01 76.56-15.90L76.56-15.90L76.56-6.69L76.56-6.69Q76.56-5.25 76.80-4.54L76.80-4.54L76.80-4.54Q77.04-3.84 77.88-3.84L77.88-3.84ZM92.34 0.24L92.34 0.24Q88.95 0.24 87.48-1.62L87.48-1.62L87.48-1.62Q86.01-3.48 86.01-7.17L86.01-7.17L86.01-15.99L86.01-15.99Q86.01-19.02 87.75-20.61L87.75-20.61L87.75-20.61Q89.49-22.20 92.61-22.20L92.61-22.20L92.61-22.20Q98.94-22.20 98.94-15.99L98.94-15.99L98.94-14.40L98.94-14.40Q98.94-12 98.88-10.50L98.88-10.50L91.26-10.50L91.26-6.24L91.26-6.24Q91.26-5.10 91.50-4.46L91.50-4.46L91.50-4.46Q91.74-3.81 92.52-3.81L92.52-3.81L92.52-3.81Q93.12-3.81 93.38-4.17L93.38-4.17L93.38-4.17Q93.63-4.53 93.67-5.00L93.67-5.00L93.67-5.00Q93.72-5.46 93.72-6.36L93.72-6.36L93.72-8.49L98.94-8.49L98.94-7.23L98.94-7.23Q98.94-3.39 97.45-1.57L97.45-1.57L97.45-1.57Q95.97 0.24 92.34 0.24L92.34 0.24ZM91.23-13.11L93.72-13.11L93.72-15.93L93.72-15.93Q93.72-18.30 92.55-18.30L92.55-18.30L92.55-18.30Q91.23-18.30 91.23-15.93L91.23-15.93L91.23-13.11Z" fill="url(#editing-glowing-gradient)"></path></g></g><style>text {
  font-size: 64px;
  font-family: Arial Black;
  dominant-baseline: central;
  text-anchor: middle;
}</style></svg>