<svg width="97.58125610351563px" height="54.00000076293945px" xmlns="http://www.w3.org/2000/svg" viewBox="201.2093719482422 47.999999618530275 97.58125610351563 54.00000076293945" style="background:#051103" preserveAspectRatio="xMidYMid"><defs><linearGradient id="editing-glowing-gradient" x1="0.8146601955249186" x2="0.18533980447508142" y1="0.8885729807284856" y2="0.11142701927151444"><stop offset="0" stop-color="#67ff43"></stop><stop offset="1" stop-color="#90ffff"></stop></linearGradient><filter id="editing-glowing" x="-100%" y="-100%" width="300%" height="300%"><feGaussianBlur in="SourceGraphic" result="blur" stdDeviation="12.5"></feGaussianBlur><feMerge><feMergeNode in="blur"></feMergeNode><feMergeNode in="SourceGraphic"></feMergeNode></feMerge></filter></defs><g filter="url(#editing-glowing)"><g transform="translate(205.404994353652, 86.77500057220459)"><path d="M8.21 0L3.83 0L3.83-7.64L0.14-23.19L4.72-23.19L6.02-15.34L7.32-23.19L11.91-23.19L8.21-7.64L8.21 0ZM18.74 0.22L18.74 0.22Q12.82 0.22 12.82-5.91L12.82-5.91L12.82-13.85L12.82-13.85Q12.82-16.66 14.40-18.32L14.40-18.32L14.40-18.32Q15.98-19.98 18.74-19.98L18.74-19.98L18.74-19.98Q21.49-19.98 23.07-18.32L23.07-18.32L23.07-18.32Q24.65-16.66 24.65-13.85L24.65-13.85L24.65-5.91L24.65-5.91Q24.65 0.22 18.74 0.22L18.74 0.22ZM18.74-3.43L18.74-3.43Q19.30-3.43 19.57-3.83L19.57-3.83L19.57-3.83Q19.84-4.24 19.84-4.94L19.84-4.94L19.84-14.61L19.84-14.61Q19.84-16.34 18.74-16.34L18.74-16.34L18.74-16.34Q17.63-16.34 17.63-14.61L17.63-14.61L17.63-4.94L17.63-4.94Q17.63-4.24 17.90-3.83L17.90-3.83L17.90-3.83Q18.17-3.43 18.74-3.43L18.74-3.43ZM30.21 0.22L30.21 0.22Q28.00 0.22 27.18-1.11L27.18-1.11L27.18-1.11Q26.35-2.43 26.35-5.05L26.35-5.05L26.35-19.76L31.10-19.76L31.10-5.99L31.10-5.99Q31.10-5.80 31.10-4.98L31.10-4.98L31.10-4.98Q31.10-4.16 31.36-3.82L31.36-3.82L31.36-3.82Q31.62-3.48 32.16-3.48L32.16-3.48L32.16-3.48Q32.89-3.48 33.07-4.09L33.07-4.09L33.07-4.09Q33.26-4.70 33.26-5.83L33.26-5.83L33.26-5.99L33.29-19.76L37.99-19.76L37.99 0L33.26 0L33.26-2.11L33.26-2.11Q32.78-0.86 32.13-0.32L32.13-0.32L32.13-0.32Q31.48 0.22 30.21 0.22L30.21 0.22ZM46.60 0L41.96 0L41.96-18.74L39.20-18.74L39.20-23.19L49.36-23.19L49.36-18.74L46.60-18.74L46.60 0ZM54.38 0.22L54.38 0.22Q52.16 0.22 51.34-1.11L51.34-1.11L51.34-1.11Q50.52-2.43 50.52-5.05L50.52-5.05L50.52-19.76L55.27-19.76L55.27-5.99L55.27-5.99Q55.27-5.80 55.27-4.98L55.27-4.98L55.27-4.98Q55.27-4.16 55.53-3.82L55.53-3.82L55.53-3.82Q55.78-3.48 56.32-3.48L56.32-3.48L56.32-3.48Q57.05-3.48 57.24-4.09L57.24-4.09L57.24-4.09Q57.43-4.70 57.43-5.83L57.43-5.83L57.43-5.99L57.46-19.76L62.15-19.76L62.15 0L57.43 0L57.43-2.11L57.43-2.11Q56.94-0.86 56.29-0.32L56.29-0.32L56.29-0.32Q55.65 0.22 54.38 0.22L54.38 0.22ZM71.69 0.22L71.69 0.22Q69.74 0.22 68.90-2.11L68.90-2.11L68.90 0L64.04 0L64.04-23.33L68.90-23.33L68.90-18.82L68.90-18.82Q70.04-19.98 71.55-19.98L71.55-19.98L71.55-19.98Q73.84-19.98 74.84-18.62L74.84-18.62L74.84-18.62Q75.84-17.25 75.84-14.69L75.84-14.69L75.84-5.16L75.84-5.16Q75.84-2.73 74.82-1.26L74.82-1.26L74.82-1.26Q73.79 0.22 71.69 0.22L71.69 0.22ZM70.09-3.46L70.09-3.46Q70.58-3.46 70.78-3.77L70.78-3.77L70.78-3.77Q70.98-4.08 71.02-4.55L71.02-4.55L71.02-4.55Q71.06-5.02 71.06-6.02L71.06-6.02L71.06-14.26L71.06-14.26Q71.06-15.31 70.88-15.82L70.88-15.82L70.88-15.82Q70.69-16.34 70.06-16.34L70.06-16.34L70.06-16.34Q69.39-16.34 69.15-15.82L69.15-15.82L69.15-15.82Q68.90-15.31 68.90-14.31L68.90-14.31L68.90-6.02L68.90-6.02Q68.90-4.72 69.12-4.09L69.12-4.09L69.12-4.09Q69.34-3.46 70.09-3.46L70.09-3.46ZM83.11 0.22L83.11 0.22Q80.05 0.22 78.73-1.46L78.73-1.46L78.73-1.46Q77.41-3.13 77.41-6.45L77.41-6.45L77.41-14.39L77.41-14.39Q77.41-17.12 78.97-18.55L78.97-18.55L78.97-18.55Q80.54-19.98 83.35-19.98L83.35-19.98L83.35-19.98Q89.05-19.98 89.05-14.39L89.05-14.39L89.05-12.96L89.05-12.96Q89.05-10.80 88.99-9.45L88.99-9.45L82.13-9.45L82.13-5.62L82.13-5.62Q82.13-4.59 82.35-4.01L82.35-4.01L82.35-4.01Q82.57-3.43 83.27-3.43L83.27-3.43L83.27-3.43Q83.81-3.43 84.04-3.75L84.04-3.75L84.04-3.75Q84.27-4.08 84.31-4.50L84.31-4.50L84.31-4.50Q84.35-4.91 84.35-5.72L84.35-5.72L84.35-7.64L89.05-7.64L89.05-6.51L89.05-6.51Q89.05-3.05 87.71-1.42L87.71-1.42L87.71-1.42Q86.37 0.22 83.11 0.22L83.11 0.22ZM82.11-11.80L84.35-11.80L84.35-14.34L84.35-14.34Q84.35-16.47 83.29-16.47L83.29-16.47L83.29-16.47Q82.11-16.47 82.11-14.34L82.11-14.34L82.11-11.80Z" fill="url(#editing-glowing-gradient)"></path></g></g><style>text {
  font-size: 64px;
  font-family: Arial Black;
  dominant-baseline: central;
  text-anchor: middle;
}</style></svg>