<svg width="100.45000610351562px" height="55.6000015258789px" xmlns="http://www.w3.org/2000/svg" viewBox="199.77499694824218 47.19999923706055 100.45000610351562 55.6000015258789" style="background:#051103" preserveAspectRatio="xMidYMid"><defs><linearGradient id="editing-glowing-gradient" x1="0.8146601955249186" x2="0.18533980447508142" y1="0.8885729807284856" y2="0.11142701927151444"><stop offset="0" stop-color="#67ff43"></stop><stop offset="1" stop-color="#90ffff"></stop></linearGradient><filter id="editing-glowing" x="-100%" y="-100%" width="300%" height="300%"><feGaussianBlur in="SourceGraphic" result="blur" stdDeviation="5.5"></feGaussianBlur><feMerge><feMergeNode in="blur"></feMergeNode><feMergeNode in="SourceGraphic"></feMergeNode></feMerge></filter></defs><g filter="url(#editing-glowing)"><g transform="translate(203.7599977105856, 87.20500087738037)"><path d="M8.51 0L3.98 0L3.98-7.92L0.14-24.05L4.90-24.05L6.24-15.90L7.59-24.05L12.35-24.05L8.51-7.92L8.51 0ZM19.43 0.22L19.43 0.22Q13.30 0.22 13.30-6.13L13.30-6.13L13.30-14.36L13.30-14.36Q13.30-17.28 14.94-19.00L14.94-19.00L14.94-19.00Q16.58-20.72 19.43-20.72L19.43-20.72L19.43-20.72Q22.29-20.72 23.93-19.00L23.93-19.00L23.93-19.00Q25.56-17.28 25.56-14.36L25.56-14.36L25.56-6.13L25.56-6.13Q25.56 0.22 19.43 0.22L19.43 0.22ZM19.43-3.56L19.43-3.56Q20.02-3.56 20.30-3.98L20.30-3.98L20.30-3.98Q20.58-4.40 20.58-5.12L20.58-5.12L20.58-15.15L20.58-15.15Q20.58-16.94 19.43-16.94L19.43-16.94L19.43-16.94Q18.28-16.94 18.28-15.15L18.28-15.15L18.28-5.12L18.28-5.12Q18.28-4.40 18.56-3.98L18.56-3.98L18.56-3.98Q18.84-3.56 19.43-3.56L19.43-3.56ZM31.33 0.22L31.33 0.22Q29.04 0.22 28.18-1.15L28.18-1.15L28.18-1.15Q27.33-2.52 27.33-5.24L27.33-5.24L27.33-20.50L32.26-20.50L32.26-6.22L32.26-6.22Q32.26-6.02 32.26-5.17L32.26-5.17L32.26-5.17Q32.26-4.31 32.52-3.96L32.52-3.96L32.52-3.96Q32.79-3.61 33.35-3.61L33.35-3.61L33.35-3.61Q34.10-3.61 34.30-4.24L34.30-4.24L34.30-4.24Q34.50-4.87 34.50-6.05L34.50-6.05L34.50-6.22L34.52-20.50L39.40-20.50L39.40 0L34.50 0L34.50-2.18L34.50-2.18Q33.99-0.90 33.32-0.34L33.32-0.34L33.32-0.34Q32.65 0.22 31.33 0.22L31.33 0.22ZM48.33 0L43.51 0L43.51-19.43L40.66-19.43L40.66-24.05L51.18-24.05L51.18-19.43L48.33-19.43L48.33 0ZM56.39 0.22L56.39 0.22Q54.10 0.22 53.24-1.15L53.24-1.15L53.24-1.15Q52.39-2.52 52.39-5.24L52.39-5.24L52.39-20.50L57.32-20.50L57.32-6.22L57.32-6.22Q57.32-6.02 57.32-5.17L57.32-5.17L57.32-5.17Q57.32-4.31 57.58-3.96L57.58-3.96L57.58-3.96Q57.85-3.61 58.41-3.61L58.41-3.61L58.41-3.61Q59.16-3.61 59.36-4.24L59.36-4.24L59.36-4.24Q59.56-4.87 59.56-6.05L59.56-6.05L59.56-6.22L59.58-20.50L64.46-20.50L64.46 0L59.56 0L59.56-2.18L59.56-2.18Q59.05-0.90 58.38-0.34L58.38-0.34L58.38-0.34Q57.71 0.22 56.39 0.22L56.39 0.22ZM74.34 0.22L74.34 0.22Q72.32 0.22 71.46-2.18L71.46-2.18L71.46 0L66.42 0L66.42-24.19L71.46-24.19L71.46-19.52L71.46-19.52Q72.63-20.72 74.20-20.72L74.20-20.72L74.20-20.72Q76.58-20.72 77.62-19.31L77.62-19.31L77.62-19.31Q78.65-17.89 78.65-15.23L78.65-15.23L78.65-5.35L78.65-5.35Q78.65-2.83 77.59-1.30L77.59-1.30L77.59-1.30Q76.52 0.22 74.34 0.22L74.34 0.22ZM72.69-3.58L72.69-3.58Q73.19-3.58 73.40-3.91L73.40-3.91L73.40-3.91Q73.61-4.23 73.65-4.72L73.65-4.72L73.65-4.72Q73.70-5.21 73.70-6.24L73.70-6.24L73.70-14.78L73.70-14.78Q73.70-15.88 73.50-16.41L73.50-16.41L73.50-16.41Q73.30-16.94 72.66-16.94L72.66-16.94L72.66-16.94Q71.96-16.94 71.71-16.41L71.71-16.41L71.71-16.41Q71.46-15.88 71.46-14.84L71.46-14.84L71.46-6.24L71.46-6.24Q71.46-4.90 71.68-4.24L71.68-4.24L71.68-4.24Q71.90-3.58 72.69-3.58L72.69-3.58ZM86.18 0.22L86.18 0.22Q83.02 0.22 81.65-1.51L81.65-1.51L81.65-1.51Q80.28-3.25 80.28-6.69L80.28-6.69L80.28-14.92L80.28-14.92Q80.28-17.75 81.90-19.24L81.90-19.24L81.90-19.24Q83.52-20.72 86.44-20.72L86.44-20.72L86.44-20.72Q92.34-20.72 92.34-14.92L92.34-14.92L92.34-13.44L92.34-13.44Q92.34-11.20 92.29-9.80L92.29-9.80L85.18-9.80L85.18-5.82L85.18-5.82Q85.18-4.76 85.40-4.16L85.40-4.16L85.40-4.16Q85.62-3.56 86.35-3.56L86.35-3.56L86.35-3.56Q86.91-3.56 87.15-3.89L87.15-3.89L87.15-3.89Q87.39-4.23 87.43-4.66L87.43-4.66L87.43-4.66Q87.47-5.10 87.47-5.94L87.47-5.94L87.47-7.92L92.34-7.92L92.34-6.75L92.34-6.75Q92.34-3.16 90.96-1.47L90.96-1.47L90.96-1.47Q89.57 0.22 86.18 0.22L86.18 0.22ZM85.15-12.24L87.47-12.24L87.47-14.87L87.47-14.87Q87.47-17.08 86.38-17.08L86.38-17.08L86.38-17.08Q85.15-17.08 85.15-14.87L85.15-14.87L85.15-12.24Z" fill="url(#editing-glowing-gradient)"></path></g></g><style>text {
  font-size: 64px;
  font-family: Arial Black;
  dominant-baseline: central;
  text-anchor: middle;
}</style></svg>