<svg width="109.07500610351562px" height="59.2000015258789px" xmlns="http://www.w3.org/2000/svg" viewBox="195.46249694824218 45.39999923706055 109.07500610351562 59.2000015258789" style="background:#051103" preserveAspectRatio="xMidYMid"><defs><linearGradient id="editing-glowing-gradient" x1="0.8146601955249186" x2="0.18533980447508142" y1="0.8885729807284856" y2="0.11142701927151444"><stop offset="0" stop-color="#67ff43"></stop><stop offset="1" stop-color="#90ffff"></stop></linearGradient><filter id="editing-glowing" x="-100%" y="-100%" width="300%" height="300%"><feGaussianBlur in="SourceGraphic" result="blur" stdDeviation="6"></feGaussianBlur><feMerge><feMergeNode in="blur"></feMergeNode><feMergeNode in="SourceGraphic"></feMergeNode></feMerge></filter></defs><g filter="url(#editing-glowing)"><g transform="translate(198.80499801039696, 88.51500034332275)"><path d="M9.42 0L4.40 0L4.40-8.77L0.15-26.63L5.42-26.63L6.91-17.61L8.40-26.63L13.67-26.63L9.42-8.77L9.42 0ZM21.51 0.25L21.51 0.25Q14.73 0.25 14.73-6.79L14.73-6.79L14.73-15.90L14.73-15.90Q14.73-19.13 16.54-21.03L16.54-21.03L16.54-21.03Q18.35-22.94 21.51-22.94L21.51-22.94L21.51-22.94Q24.68-22.94 26.49-21.03L26.49-21.03L26.49-21.03Q28.30-19.13 28.30-15.90L28.30-15.90L28.30-6.79L28.30-6.79Q28.30 0.25 21.51 0.25L21.51 0.25ZM21.51-3.94L21.51-3.94Q22.16-3.94 22.48-4.40L22.48-4.40L22.48-4.40Q22.79-4.87 22.79-5.67L22.79-5.67L22.79-16.77L22.79-16.77Q22.79-18.75 21.51-18.75L21.51-18.75L21.51-18.75Q20.24-18.75 20.24-16.77L20.24-16.77L20.24-5.67L20.24-5.67Q20.24-4.87 20.55-4.40L20.55-4.40L20.55-4.40Q20.86-3.94 21.51-3.94L21.51-3.94ZM34.69 0.25L34.69 0.25Q32.15 0.25 31.20-1.27L31.20-1.27L31.20-1.27Q30.26-2.79 30.26-5.80L30.26-5.80L30.26-22.69L35.71-22.69L35.71-6.88L35.71-6.88Q35.71-6.67 35.71-5.72L35.71-5.72L35.71-5.72Q35.71-4.77 36.01-4.39L36.01-4.39L36.01-4.39Q36.30-4.00 36.92-4.00L36.92-4.00L36.92-4.00Q37.76-4.00 37.98-4.70L37.98-4.70L37.98-4.70Q38.19-5.39 38.19-6.70L38.19-6.70L38.19-6.88L38.22-22.69L43.62-22.69L43.62 0L38.19 0L38.19-2.42L38.19-2.42Q37.63-0.99 36.89-0.37L36.89-0.37L36.89-0.37Q36.15 0.25 34.69 0.25L34.69 0.25ZM53.51 0L48.17 0L48.17-21.51L45.01-21.51L45.01-26.63L56.67-26.63L56.67-21.51L53.51-21.51L53.51 0ZM62.43 0.25L62.43 0.25Q59.89 0.25 58.95-1.27L58.95-1.27L58.95-1.27Q58.00-2.79 58.00-5.80L58.00-5.80L58.00-22.69L63.46-22.69L63.46-6.88L63.46-6.88Q63.46-6.67 63.46-5.72L63.46-5.72L63.46-5.72Q63.46-4.77 63.75-4.39L63.75-4.39L63.75-4.39Q64.05-4.00 64.67-4.00L64.67-4.00L64.67-4.00Q65.50-4.00 65.72-4.70L65.72-4.70L65.72-4.70Q65.94-5.39 65.94-6.70L65.94-6.70L65.94-6.88L65.97-22.69L71.36-22.69L71.36 0L65.94 0L65.94-2.42L65.94-2.42Q65.38-0.99 64.63-0.37L64.63-0.37L64.63-0.37Q63.89 0.25 62.43 0.25L62.43 0.25ZM82.30 0.25L82.30 0.25Q80.07 0.25 79.11-2.42L79.11-2.42L79.11 0L73.53 0L73.53-26.78L79.11-26.78L79.11-21.61L79.11-21.61Q80.41-22.94 82.15-22.94L82.15-22.94L82.15-22.94Q84.78-22.94 85.93-21.37L85.93-21.37L85.93-21.37Q87.08-19.81 87.08-16.86L87.08-16.86L87.08-5.92L87.08-5.92Q87.08-3.13 85.90-1.44L85.90-1.44L85.90-1.44Q84.72 0.25 82.30 0.25L82.30 0.25ZM80.48-3.97L80.48-3.97Q81.03-3.97 81.27-4.32L81.27-4.32L81.27-4.32Q81.50-4.68 81.55-5.22L81.55-5.22L81.55-5.22Q81.59-5.77 81.59-6.91L81.59-6.91L81.59-16.37L81.59-16.37Q81.59-17.58 81.37-18.17L81.37-18.17L81.37-18.17Q81.16-18.75 80.44-18.75L80.44-18.75L80.44-18.75Q79.67-18.75 79.39-18.17L79.39-18.17L79.39-18.17Q79.11-17.58 79.11-16.43L79.11-16.43L79.11-6.91L79.11-6.91Q79.11-5.42 79.36-4.70L79.36-4.70L79.36-4.70Q79.61-3.97 80.48-3.97L80.48-3.97ZM95.42 0.25L95.42 0.25Q91.91 0.25 90.40-1.67L90.40-1.67L90.40-1.67Q88.88-3.60 88.88-7.41L88.88-7.41L88.88-16.52L88.88-16.52Q88.88-19.65 90.67-21.30L90.67-21.30L90.67-21.30Q92.47-22.94 95.70-22.94L95.70-22.94L95.70-22.94Q102.24-22.94 102.24-16.52L102.24-16.52L102.24-14.88L102.24-14.88Q102.24-12.40 102.18-10.85L102.18-10.85L94.30-10.85L94.30-6.45L94.30-6.45Q94.30-5.27 94.55-4.60L94.55-4.60L94.55-4.60Q94.80-3.94 95.60-3.94L95.60-3.94L95.60-3.94Q96.22-3.94 96.49-4.31L96.49-4.31L96.49-4.31Q96.75-4.68 96.80-5.16L96.80-5.16L96.80-5.16Q96.84-5.64 96.84-6.57L96.84-6.57L96.84-8.77L102.24-8.77L102.24-7.47L102.24-7.47Q102.24-3.50 100.70-1.63L100.70-1.63L100.70-1.63Q99.17 0.25 95.42 0.25L95.42 0.25ZM94.27-13.55L96.84-13.55L96.84-16.46L96.84-16.46Q96.84-18.91 95.63-18.91L95.63-18.91L95.63-18.91Q94.27-18.91 94.27-16.46L94.27-16.46L94.27-13.55Z" fill="url(#editing-glowing-gradient)"></path></g></g><style>text {
  font-size: 64px;
  font-family: Arial Black;
  dominant-baseline: central;
  text-anchor: middle;
}</style></svg>