<svg width="91.8437515258789px" height="51.60000076293945px" xmlns="http://www.w3.org/2000/svg" viewBox="204.07812423706054 49.19999961853027 91.8437515258789 51.60000076293945" style="background:#051103" preserveAspectRatio="xMidYMid"><defs><linearGradient id="editing-glowing-gradient" x1="0.8146601955249186" x2="0.18533980447508142" y1="0.8885729807284856" y2="0.11142701927151444"><stop offset="0" stop-color="#67ff43"></stop><stop offset="1" stop-color="#90ffff"></stop></linearGradient><filter id="editing-glowing" x="-100%" y="-100%" width="300%" height="300%"><feGaussianBlur in="SourceGraphic" result="blur" stdDeviation="10.5"></feGaussianBlur><feMerge><feMergeNode in="blur"></feMergeNode><feMergeNode in="SourceGraphic"></feMergeNode></feMerge></filter></defs><g filter="url(#editing-glowing)"><g transform="translate(208.709996342659, 85.9000015258789)"><path d="M7.60 0L3.55 0L3.55-7.08L0.13-21.48L4.38-21.48L5.58-14.20L6.78-21.48L11.03-21.48L7.60-7.08L7.60 0ZM17.35 0.20L17.35 0.20Q11.88 0.20 11.88-5.48L11.88-5.48L11.88-12.83L11.88-12.83Q11.88-15.43 13.34-16.96L13.34-16.96L13.34-16.96Q14.80-18.50 17.35-18.50L17.35-18.50L17.35-18.50Q19.90-18.50 21.36-16.96L21.36-16.96L21.36-16.96Q22.83-15.43 22.83-12.83L22.83-12.83L22.83-5.48L22.83-5.48Q22.83 0.20 17.35 0.20L17.35 0.20ZM17.35-3.18L17.35-3.18Q17.88-3.18 18.13-3.55L18.13-3.55L18.13-3.55Q18.38-3.93 18.38-4.58L18.38-4.58L18.38-13.53L18.38-13.53Q18.38-15.13 17.35-15.13L17.35-15.13L17.35-15.13Q16.33-15.13 16.33-13.53L16.33-13.53L16.33-4.58L16.33-4.58Q16.33-3.93 16.58-3.55L16.58-3.55L16.58-3.55Q16.83-3.18 17.35-3.18L17.35-3.18ZM27.98 0.20L27.98 0.20Q25.93 0.20 25.16-1.03L25.16-1.03L25.16-1.03Q24.40-2.25 24.40-4.67L24.40-4.67L24.40-18.30L28.80-18.30L28.80-5.55L28.80-5.55Q28.80-5.38 28.80-4.61L28.80-4.61L28.80-4.61Q28.80-3.85 29.04-3.54L29.04-3.54L29.04-3.54Q29.28-3.23 29.78-3.23L29.78-3.23L29.78-3.23Q30.45-3.23 30.63-3.79L30.63-3.79L30.63-3.79Q30.80-4.35 30.80-5.40L30.80-5.40L30.80-5.55L30.83-18.30L35.18-18.30L35.18 0L30.80 0L30.80-1.95L30.80-1.95Q30.35-0.80 29.75-0.30L29.75-0.30L29.75-0.30Q29.15 0.20 27.98 0.20L27.98 0.20ZM43.15 0L38.85 0L38.85-17.35L36.30-17.35L36.30-21.48L45.70-21.48L45.70-17.35L43.15-17.35L43.15 0ZM50.35 0.20L50.35 0.20Q48.30 0.20 47.54-1.03L47.54-1.03L47.54-1.03Q46.78-2.25 46.78-4.67L46.78-4.67L46.78-18.30L51.18-18.30L51.18-5.55L51.18-5.55Q51.18-5.38 51.18-4.61L51.18-4.61L51.18-4.61Q51.18-3.85 51.41-3.54L51.41-3.54L51.41-3.54Q51.65-3.23 52.15-3.23L52.15-3.23L52.15-3.23Q52.83-3.23 53-3.79L53-3.79L53-3.79Q53.18-4.35 53.18-5.40L53.18-5.40L53.18-5.55L53.20-18.30L57.55-18.30L57.55 0L53.18 0L53.18-1.95L53.18-1.95Q52.73-0.80 52.13-0.30L52.13-0.30L52.13-0.30Q51.53 0.20 50.35 0.20L50.35 0.20ZM66.38 0.20L66.38 0.20Q64.58 0.20 63.80-1.95L63.80-1.95L63.80 0L59.30 0L59.30-21.60L63.80-21.60L63.80-17.43L63.80-17.43Q64.85-18.50 66.25-18.50L66.25-18.50L66.25-18.50Q68.38-18.50 69.30-17.24L69.30-17.24L69.30-17.24Q70.23-15.98 70.23-13.60L70.23-13.60L70.23-4.78L70.23-4.78Q70.23-2.53 69.28-1.16L69.28-1.16L69.28-1.16Q68.33 0.20 66.38 0.20L66.38 0.20ZM64.90-3.20L64.90-3.20Q65.35-3.20 65.54-3.49L65.54-3.49L65.54-3.49Q65.73-3.78 65.76-4.21L65.76-4.21L65.76-4.21Q65.80-4.65 65.80-5.58L65.80-5.58L65.80-13.20L65.80-13.20Q65.80-14.18 65.63-14.65L65.63-14.65L65.63-14.65Q65.45-15.13 64.88-15.13L64.88-15.13L64.88-15.13Q64.25-15.13 64.03-14.65L64.03-14.65L64.03-14.65Q63.80-14.18 63.80-13.25L63.80-13.25L63.80-5.58L63.80-5.58Q63.80-4.38 64-3.79L64-3.79L64-3.79Q64.20-3.20 64.90-3.20L64.90-3.20ZM76.95 0.20L76.95 0.20Q74.13 0.20 72.90-1.35L72.90-1.35L72.90-1.35Q71.67-2.90 71.67-5.98L71.67-5.98L71.67-13.33L71.67-13.33Q71.67-15.85 73.13-17.18L73.13-17.18L73.13-17.18Q74.58-18.50 77.17-18.50L77.17-18.50L77.17-18.50Q82.45-18.50 82.45-13.33L82.45-13.33L82.45-12L82.45-12Q82.45-10 82.40-8.75L82.40-8.75L76.05-8.75L76.05-5.20L76.05-5.20Q76.05-4.25 76.25-3.71L76.25-3.71L76.25-3.71Q76.45-3.18 77.10-3.18L77.10-3.18L77.10-3.18Q77.60-3.18 77.81-3.48L77.81-3.48L77.81-3.48Q78.03-3.78 78.06-4.16L78.06-4.16L78.06-4.16Q78.10-4.55 78.10-5.30L78.10-5.30L78.10-7.08L82.45-7.08L82.45-6.03L82.45-6.03Q82.45-2.83 81.21-1.31L81.21-1.31L81.21-1.31Q79.98 0.20 76.95 0.20L76.95 0.20ZM76.03-10.93L78.10-10.93L78.10-13.28L78.10-13.28Q78.10-15.25 77.13-15.25L77.13-15.25L77.13-15.25Q76.03-15.25 76.03-13.28L76.03-13.28L76.03-10.93Z" fill="url(#editing-glowing-gradient)"></path></g></g><style>text {
  font-size: 64px;
  font-family: Arial Black;
  dominant-baseline: central;
  text-anchor: middle;
}</style></svg>